<!DOCTYPE svg PUBLIC "-//W3C//DTD SVG 1.1//EN" "http://www.w3.org/Graphics/SVG/1.1/DTD/svg11.dtd">

<!-- Uploaded to: SVG Repo, www.svgrepo.com, Transformed by: SVG Repo Mixer Tools -->className=
<svg fill="#172554" width="800px" height="800px" viewBox="0 0 24 24" xmlns="http://www.w3.org/2000/svg" id="folder-favorite" class="icon glyph">

<g id="SVGRepo_bgCarrier" stroke-width="0"/>

<g id="SVGRepo_tracerCarrier" stroke-linecap="round" stroke-linejoin="round"/>

<g id="SVGRepo_iconCarrier">

<path d="M21,17.89,17.21,21.7a1,1,0,0,1-1.42,0L12,17.89a3.45,3.45,0,0,1,4.5-5.2,3.45,3.45,0,0,1,4.5,5.2ZM20,5H12.83L10.41,2.59A2,2,0,0,0,9,2H4A2,2,0,0,0,2,4V17a2,2,0,0,0,2,2h6.31a5.45,5.45,0,0,1,6.19-8.58,5.46,5.46,0,0,1,2.05-.4A5.6,5.6,0,0,1,22,11.22V7A2,2,0,0,0,20,5Z"/>

</g>

</svg>